<?xml version="1.0" encoding="UTF-8"?>
<svg version="1.1" xmlns="http://www.w3.org/2000/svg" width="148" height="148">
<path d="M0 0 C5.24163125 -0.3209162 9.63685697 -0.05897011 14 3 C17.59723428 7.26452007 20.6000579 11.98469229 23.59960938 16.68164062 C27.30264034 22.18772695 27.30264034 22.18772695 33.19384766 24.64306641 C36.20069404 24.64439081 39.03124994 24.4613913 42 24 C42 26.97 42 29.94 42 33 C40.35 33 38.7 33 37 33 C37.97776067 34.48009643 38.9572494 35.95905144 39.9375 37.4375 C40.48277344 38.26121094 41.02804688 39.08492187 41.58984375 39.93359375 C42.83802981 41.89985925 42.83802981 41.89985925 44 43 C46.01594582 43.23427778 48.038474 43.41336124 50.0625 43.5625 C51.16722656 43.64628906 52.27195312 43.73007812 53.41015625 43.81640625 C54.26480469 43.87699219 55.11945313 43.93757813 56 44 C56 46.64 56 49.28 56 52 C54.02 52.99 54.02 52.99 52 54 C53.31176002 55.64642317 54.6244287 57.29212243 55.9375 58.9375 C56.66839844 59.85402344 57.39929688 60.77054688 58.15234375 61.71484375 C60.18097783 64.58239669 60.18097783 64.58239669 63.31323242 65.26538086 C64.31717041 65.33120361 65.3211084 65.39702637 66.35546875 65.46484375 C67.45310547 65.54283203 68.55074219 65.62082031 69.68164062 65.70117188 C71.99917661 65.85739575 74.31688493 66.01108599 76.63476562 66.16210938 C77.73884766 66.24138672 78.84292969 66.32066406 79.98046875 66.40234375 C80.99004639 66.46929443 81.99962402 66.53624512 83.03979492 66.60522461 C88.11317054 67.28181417 92.08261401 68.68528878 96 72 C95.8125 74.3125 95.8125 74.3125 95 77 C91.48666758 79.56598743 88.46272899 80.52130913 84.1875 81.125 C83.05183594 81.29386719 81.91617188 81.46273437 80.74609375 81.63671875 C78.04043813 81.89910245 75.60317366 82.01608586 72.91015625 81.95703125 C64.89962013 81.75646174 64.89962013 81.75646174 57.984375 85.5078125 C55.75650877 88.24710714 53.7998493 90.96525409 52 94 C53.98 94.99 53.98 94.99 56 96 C56 98.64 56 101.28 56 104 C55.21496094 103.96777344 54.42992188 103.93554688 53.62109375 103.90234375 C47.09813685 103.89255651 47.09813685 103.89255651 41.64453125 107.0703125 C39.93718542 109.31626433 38.40338284 111.553963 37 114 C38.98 114.66 40.96 115.32 43 116 C43.04241723 118.33294775 43.04092937 120.66702567 43 123 C42.67 123.33 42.34 123.66 42 124 C41.14535156 123.94199219 40.29070312 123.88398437 39.41015625 123.82421875 C33.01936798 123.49068507 33.01936798 123.49068507 27.48779297 126.30419922 C24.62248345 129.6438911 22.36384887 133.35224914 20.12939453 137.1315918 C15.10168539 145.4491573 15.10168539 145.4491573 11.125 147.4375 C7.68586874 148.05654363 4.48737035 148.13949481 1 148 C2.24203061 144.80994244 3.57371017 141.66708396 4.9453125 138.53125 C5.29980469 137.71269531 5.65429688 136.89414063 6.01953125 136.05078125 C6.75775126 134.34739728 7.50257612 132.64686087 8.25390625 130.94921875 C8.60582031 130.13066406 8.95773438 129.31210938 9.3203125 128.46875 C9.80395264 127.36176758 9.80395264 127.36176758 10.29736328 126.23242188 C11.13480355 123.97117067 11.13480355 123.97117067 10.97998047 121.36523438 C11 119 11 119 13 116.6875 C13.66 116.130625 14.32 115.57375 15 115 C14.34 115 13.68 115 13 115 C13 113.68 13 112.36 13 111 C14.32 111 15.64 111 17 111 C17.495 109.02 17.495 109.02 18 107 C17.34 107 16.68 107 16 107 C16 106.01 16 105.02 16 104 C16.9590625 103.690625 16.9590625 103.690625 17.9375 103.375 C20.3508355 102.11582828 20.3508355 102.11582828 20.625 98.9375 C20.810625 97.4834375 20.810625 97.4834375 21 96 C21.66 95.67 22.32 95.34 23 95 C23 93.02 23 91.04 23 89 C23.66 89 24.32 89 25 89 C25.33 87.02 25.66 85.04 26 83 C25.12263184 82.97494385 24.24526367 82.9498877 23.34130859 82.92407227 C20.06482809 82.82854616 16.78850102 82.72933757 13.51220703 82.62768555 C12.09818835 82.58455749 10.68412498 82.54286832 9.27001953 82.50268555 C7.2293556 82.4444425 5.18891205 82.38090859 3.1484375 82.31640625 C1.92302246 82.27974854 0.69760742 82.24309082 -0.56494141 82.20532227 C-4 82 -4 82 -7.27514648 81.32617188 C-8.62394897 81.1647168 -8.62394897 81.1647168 -10 81 C-12.18439047 82.96066911 -13.70664896 84.62845115 -15.4375 86.9375 C-15.91558105 87.53272461 -16.39366211 88.12794922 -16.88623047 88.74121094 C-18.96106363 91.32686928 -20.96709535 93.95588535 -22.94921875 96.61328125 C-26.93085845 101.6901039 -26.93085845 101.6901039 -30.42578125 102.703125 C-32.65264356 102.96633112 -34.76137207 103.08122006 -37 103 C-36.41631082 96.94114192 -34.61261739 91.72641954 -32.4375 86.0625 C-32.10814453 85.18787109 -31.77878906 84.31324219 -31.43945312 83.41210938 C-30.63265269 81.27233432 -29.81720329 79.13582374 -29 77 C-33.95 76.67 -38.9 76.34 -44 76 C-44 75.01 -44 74.02 -44 73 C-40.37988365 72.25741203 -36.96033933 71.94184227 -33.27734375 71.96875 C-32.07259399 71.97551758 -32.07259399 71.97551758 -30.84350586 71.98242188 C-30.23514893 71.98822266 -29.62679199 71.99402344 -29 72 C-29.36351562 71.03960815 -29.36351562 71.03960815 -29.734375 70.05981445 C-30.8314011 67.14715741 -31.91579869 64.22995386 -33 61.3125 C-33.3815625 60.30509766 -33.763125 59.29769531 -34.15625 58.25976562 C-34.5171875 57.28330078 -34.878125 56.30683594 -35.25 55.30078125 C-35.58515625 54.40528564 -35.9203125 53.50979004 -36.265625 52.5871582 C-37.02016312 49.92896656 -37.13857647 47.74771161 -37 45 C-32.76668954 44.95408557 -28.84785209 45.42172845 -25.52734375 48.2578125 C-21.60457294 52.33749415 -17.72835715 56.90968262 -14.95962524 61.86019897 C-12.80136779 65.59458418 -12.80136779 65.59458418 -9.12672424 67.53456116 C-6.84749935 67.61797888 -4.68697754 67.47740861 -2.41796875 67.24609375 C-1.60378983 67.19179703 -0.7896109 67.13750031 0.04924011 67.08155823 C2.64083001 66.90087839 5.22509647 66.67000806 7.8125 66.4375 C9.57201958 66.30591234 11.33178885 66.17761916 13.09179688 66.05273438 C17.39835846 65.73993059 21.69905321 65.38207425 26 65 C25.68289062 64.21753906 25.36578125 63.43507812 25.0390625 62.62890625 C23.52269231 58.79237565 23 56.17453026 23 52 C22.34 52 21.68 52 21 52 C20.505 48.535 20.505 48.535 20 45 C18.68 45 17.36 45 16 45 C16.185625 44.21625 16.37125 43.4325 16.5625 42.625 C17.25962266 40.02910225 17.25962266 40.02910225 16 38 C13.97536745 37.34786708 13.97536745 37.34786708 12 37 C12 34 12 34 14 32 C14 31.34 14 30.68 14 30 C12.68 29.67 11.36 29.34 10 29 C10.20214111 28.44207764 10.40428223 27.88415527 10.61254883 27.30932617 C11.11449952 24.31754825 10.40010574 22.82091102 9.19921875 20.05078125 C8.59883789 18.65569336 8.59883789 18.65569336 7.98632812 17.23242188 C7.55771484 16.26884766 7.12910156 15.30527344 6.6875 14.3125 C6.27048828 13.33732422 5.85347656 12.36214844 5.42382812 11.35742188 C3.65054549 6.36120006 3.65054549 6.36120006 0 3 C0 2.01 0 1.02 0 0 Z " fill="#F9D622" transform="translate(48,0)"/>
<path d="M0 0 C6.31554569 0.38994289 6.31554569 0.38994289 9.3359375 3.08203125 C10.00882813 3.98308594 10.68171875 4.88414063 11.375 5.8125 C12.13941406 6.79476563 12.90382812 7.77703125 13.69140625 8.7890625 C15.26362704 10.97580614 16.72820313 13.12372319 18.15234375 15.3984375 C21.96660327 21.66306839 21.96660327 21.66306839 28.234375 24.75390625 C31.25152768 24.75036499 34.03515686 24.54179875 37 24 C37 25.65 37 27.3 37 29 C34.69 29.66 32.38 30.32 30 31 C34.54183635 39.14275111 34.54183635 39.14275111 42.046875 43.796875 C44.78768816 43.75427169 47.31524856 43.54196852 50 43 C50 44.98 50 46.96 50 49 C48.02 49.33 46.04 49.66 44 50 C44.54269531 50.67546875 45.08539063 51.3509375 45.64453125 52.046875 C46.35996094 52.93890625 47.07539062 53.8309375 47.8125 54.75 C48.52019531 55.63171875 49.22789063 56.5134375 49.95703125 57.421875 C52 60 52 60 53.51171875 62.265625 C55.33027002 64.3848816 56.29919244 64.49229717 59 65 C61.06442307 65.11048449 63.12923071 65.21759029 65.1953125 65.29077148 C84.99528794 65.99528794 84.99528794 65.99528794 90 71 C90 71.99 90 72.98 90 74 C77.52180326 75.64808576 65.32073768 76.27531004 52.7421875 76.1953125 C50.97429568 76.19156862 49.20640174 76.18872818 47.43850708 76.18673706 C42.85196908 76.17920862 38.26556378 76.15965707 33.67907715 76.1373291 C28.97226759 76.11663397 24.26543597 76.10768548 19.55859375 76.09765625 C10.37233847 76.07639755 1.1861804 76.04239731 -8 76 C-8.66 74.35 -9.32 72.7 -10 71 C-10.97582031 71.01160156 -11.95164062 71.02320312 -12.95703125 71.03515625 C-14.22933594 71.04417969 -15.50164063 71.05320312 -16.8125 71.0625 C-18.70935547 71.07990234 -18.70935547 71.07990234 -20.64453125 71.09765625 C-24 71 -24 71 -27 70 C-27.99 70 -28.98 70 -30 70 C-32.90474323 64.44309991 -35.23485417 58.93234257 -37.25 53 C-37.518125 52.22527344 -37.78625 51.45054688 -38.0625 50.65234375 C-38.71321767 48.76991049 -39.35732065 46.88519275 -40 45 C-33.63139036 45.49695033 -33.63139036 45.49695033 -30.84765625 47.71484375 C-29.96400391 48.81505859 -29.96400391 48.81505859 -29.0625 49.9375 C-28.07056641 51.1440625 -28.07056641 51.1440625 -27.05859375 52.375 C-26.37925781 53.24125 -25.69992188 54.1075 -25 55 C-24.26910156 55.9075 -23.53820312 56.815 -22.78515625 57.75 C-21.40225094 59.47050425 -20.02771444 61.19778979 -18.6640625 62.93359375 C-17.01700774 65.05447994 -17.01700774 65.05447994 -15 67 C-12.96669788 66.81080504 -10.93409047 66.60389274 -8.91064453 66.32861328 C-2.78496521 65.6370209 3.40327897 65.61580665 9.5625 65.4375 C10.96680703 65.39420824 12.37110406 65.35059096 13.77539062 65.30664062 C17.18350951 65.20123489 20.5916932 65.09911018 24 65 C23.690625 63.75992188 23.38125 62.51984375 23.0625 61.2421875 C22.88847656 60.54464355 22.71445313 59.84709961 22.53515625 59.12841797 C22.35855469 58.42604004 22.18195313 57.72366211 22 57 C21.83371094 56.33758301 21.66742188 55.67516602 21.49609375 54.99267578 C20.70090364 51.99897287 20.22898043 50.22898043 18 48 C17.875 44.875 17.875 44.875 18 42 C17.01 42 16.02 42 15 42 C14.9175 40.88625 14.835 39.7725 14.75 38.625 C14.42126213 34.94246056 14.42126213 34.94246056 11.9375 33.5625 C10.9784375 33.2840625 10.9784375 33.2840625 10 33 C10.99 33 11.98 33 13 33 C12.60619141 32.0713916 12.21238281 31.1427832 11.80664062 30.18603516 C10.34942699 26.74728389 8.89690193 23.30656896 7.44580078 19.86523438 C6.81654974 18.37478328 6.18602066 16.8848711 5.55419922 15.39550781 C4.64736466 13.25725741 3.74511211 11.11712448 2.84375 8.9765625 C2.55939087 8.30879791 2.27503174 7.64103333 1.98205566 6.95303345 C0 2.22774341 0 2.22774341 0 0 Z " fill="#F8D421" transform="translate(52,2)"/>
<path d="M0 0 C5.24163125 -0.3209162 9.63685697 -0.05897011 14 3 C17.59723428 7.26452007 20.6000579 11.98469229 23.59960938 16.68164062 C27.30264034 22.18772695 27.30264034 22.18772695 33.19384766 24.64306641 C36.20069404 24.64439081 39.03124994 24.4613913 42 24 C42 26.97 42 29.94 42 33 C40.35 33 38.7 33 37 33 C37.97776067 34.48009643 38.9572494 35.95905144 39.9375 37.4375 C40.48277344 38.26121094 41.02804688 39.08492187 41.58984375 39.93359375 C42.83802981 41.89985925 42.83802981 41.89985925 44 43 C46.01594582 43.23427778 48.038474 43.41336124 50.0625 43.5625 C51.16722656 43.64628906 52.27195312 43.73007812 53.41015625 43.81640625 C54.26480469 43.87699219 55.11945313 43.93757813 56 44 C56 46.64 56 49.28 56 52 C54.02 52.99 54.02 52.99 52 54 C53.31176002 55.64642317 54.6244287 57.29212243 55.9375 58.9375 C56.66839844 59.85402344 57.39929688 60.77054688 58.15234375 61.71484375 C60.18097783 64.58239669 60.18097783 64.58239669 63.31323242 65.26538086 C64.31717041 65.33120361 65.3211084 65.39702637 66.35546875 65.46484375 C67.45310547 65.54283203 68.55074219 65.62082031 69.68164062 65.70117188 C71.99917661 65.85739575 74.31688493 66.01108599 76.63476562 66.16210938 C77.73884766 66.24138672 78.84292969 66.32066406 79.98046875 66.40234375 C80.99004639 66.46929443 81.99962402 66.53624512 83.03979492 66.60522461 C88.11317054 67.28181417 92.08261401 68.68528878 96 72 C95.8125 74.3125 95.8125 74.3125 95 77 C91.48666758 79.56598743 88.46272899 80.52130913 84.1875 81.125 C83.05183594 81.29386719 81.91617188 81.46273437 80.74609375 81.63671875 C78.04043813 81.89910245 75.60317366 82.01608586 72.91015625 81.95703125 C64.89962013 81.75646174 64.89962013 81.75646174 57.984375 85.5078125 C55.75650877 88.24710714 53.7998493 90.96525409 52 94 C53.98 94.99 53.98 94.99 56 96 C56 98.64 56 101.28 56 104 C55.21496094 103.96777344 54.42992188 103.93554688 53.62109375 103.90234375 C47.09813685 103.89255651 47.09813685 103.89255651 41.64453125 107.0703125 C39.93718542 109.31626433 38.40338284 111.553963 37 114 C38.98 114.66 40.96 115.32 43 116 C43.04241723 118.33294775 43.04092937 120.66702567 43 123 C42.67 123.33 42.34 123.66 42 124 C41.14535156 123.94199219 40.29070312 123.88398437 39.41015625 123.82421875 C33.01936798 123.49068507 33.01936798 123.49068507 27.48779297 126.30419922 C24.62248345 129.6438911 22.36384887 133.35224914 20.12939453 137.1315918 C15.10168539 145.4491573 15.10168539 145.4491573 11.125 147.4375 C7.68586874 148.05654363 4.48737035 148.13949481 1 148 C2.24203061 144.80994244 3.57371017 141.66708396 4.9453125 138.53125 C5.29980469 137.71269531 5.65429688 136.89414063 6.01953125 136.05078125 C6.75775126 134.34739728 7.50257612 132.64686087 8.25390625 130.94921875 C8.60582031 130.13066406 8.95773438 129.31210938 9.3203125 128.46875 C9.80395264 127.36176758 9.80395264 127.36176758 10.29736328 126.23242188 C11.13480355 123.97117067 11.13480355 123.97117067 10.97998047 121.36523438 C11 119 11 119 13 116.6875 C13.66 116.130625 14.32 115.57375 15 115 C14.34 115 13.68 115 13 115 C13 113.68 13 112.36 13 111 C14.32 111 15.64 111 17 111 C17.495 109.02 17.495 109.02 18 107 C17.34 107 16.68 107 16 107 C16 106.01 16 105.02 16 104 C16.9590625 103.690625 16.9590625 103.690625 17.9375 103.375 C20.3508355 102.11582828 20.3508355 102.11582828 20.625 98.9375 C20.810625 97.4834375 20.810625 97.4834375 21 96 C21.66 95.67 22.32 95.34 23 95 C23 93.02 23 91.04 23 89 C23.66 89 24.32 89 25 89 C25.33 87.02 25.66 85.04 26 83 C25.12263184 82.97494385 24.24526367 82.9498877 23.34130859 82.92407227 C20.06482809 82.82854616 16.78850102 82.72933757 13.51220703 82.62768555 C12.09818835 82.58455749 10.68412498 82.54286832 9.27001953 82.50268555 C7.2293556 82.4444425 5.18891205 82.38090859 3.1484375 82.31640625 C1.92302246 82.27974854 0.69760742 82.24309082 -0.56494141 82.20532227 C-4 82 -4 82 -7.27514648 81.32617188 C-8.62394897 81.1647168 -8.62394897 81.1647168 -10 81 C-12.18439047 82.96066911 -13.70664896 84.62845115 -15.4375 86.9375 C-15.91558105 87.53272461 -16.39366211 88.12794922 -16.88623047 88.74121094 C-18.96106363 91.32686928 -20.96709535 93.95588535 -22.94921875 96.61328125 C-26.93085845 101.6901039 -26.93085845 101.6901039 -30.42578125 102.703125 C-32.65264356 102.96633112 -34.76137207 103.08122006 -37 103 C-36.41631082 96.94114192 -34.61261739 91.72641954 -32.4375 86.0625 C-32.10814453 85.18787109 -31.77878906 84.31324219 -31.43945312 83.41210938 C-30.63265269 81.27233432 -29.81720329 79.13582374 -29 77 C-33.95 76.67 -38.9 76.34 -44 76 C-44 75.01 -44 74.02 -44 73 C-40.37988365 72.25741203 -36.96033933 71.94184227 -33.27734375 71.96875 C-32.07259399 71.97551758 -32.07259399 71.97551758 -30.84350586 71.98242188 C-30.23514893 71.98822266 -29.62679199 71.99402344 -29 72 C-29.36351562 71.03960815 -29.36351562 71.03960815 -29.734375 70.05981445 C-30.8314011 67.14715741 -31.91579869 64.22995386 -33 61.3125 C-33.3815625 60.30509766 -33.763125 59.29769531 -34.15625 58.25976562 C-34.5171875 57.28330078 -34.878125 56.30683594 -35.25 55.30078125 C-35.58515625 54.40528564 -35.9203125 53.50979004 -36.265625 52.5871582 C-37.02016312 49.92896656 -37.13857647 47.74771161 -37 45 C-32.76668954 44.95408557 -28.84785209 45.42172845 -25.52734375 48.2578125 C-21.60457294 52.33749415 -17.72835715 56.90968262 -14.95962524 61.86019897 C-12.80136779 65.59458418 -12.80136779 65.59458418 -9.12672424 67.53456116 C-6.84749935 67.61797888 -4.68697754 67.47740861 -2.41796875 67.24609375 C-1.60378983 67.19179703 -0.7896109 67.13750031 0.04924011 67.08155823 C2.64083001 66.90087839 5.22509647 66.67000806 7.8125 66.4375 C9.57201958 66.30591234 11.33178885 66.17761916 13.09179688 66.05273438 C17.39835846 65.73993059 21.69905321 65.38207425 26 65 C25.68289062 64.21753906 25.36578125 63.43507812 25.0390625 62.62890625 C23.52269231 58.79237565 23 56.17453026 23 52 C22.34 52 21.68 52 21 52 C20.505 48.535 20.505 48.535 20 45 C18.68 45 17.36 45 16 45 C16.185625 44.21625 16.37125 43.4325 16.5625 42.625 C17.25962266 40.02910225 17.25962266 40.02910225 16 38 C13.97536745 37.34786708 13.97536745 37.34786708 12 37 C12 34 12 34 14 32 C14 31.34 14 30.68 14 30 C12.68 29.67 11.36 29.34 10 29 C10.20214111 28.44207764 10.40428223 27.88415527 10.61254883 27.30932617 C11.11449952 24.31754825 10.40010574 22.82091102 9.19921875 20.05078125 C8.59883789 18.65569336 8.59883789 18.65569336 7.98632812 17.23242188 C7.55771484 16.26884766 7.12910156 15.30527344 6.6875 14.3125 C6.27048828 13.33732422 5.85347656 12.36214844 5.42382812 11.35742188 C3.65054549 6.36120006 3.65054549 6.36120006 0 3 C0 2.01 0 1.02 0 0 Z M4 2 C6.07047694 9.69521929 8.94551708 16.85481861 12.1875 24.125 C12.65091797 25.176875 13.11433594 26.22875 13.59179688 27.3125 C14.72266478 29.87735504 15.85879519 32.43973181 17 35 C16.01 35.33 15.02 35.66 14 36 C15.32 36.33 16.64 36.66 18 37 C18.495 40.465 18.495 40.465 19 44 C19.99 44 20.98 44 22 44 C22 46.31 22 48.62 22 51 C22.66 51.33 23.32 51.66 24 52 C24.76333957 54.33772742 25.41233908 56.61775246 26 59 C26.26490234 60.05658813 26.26490234 60.05658813 26.53515625 61.13452148 C27.0234375 63.08968099 27.51171875 65.04484049 28 67 C27.13834229 67.02505615 26.27668457 67.0501123 25.38891602 67.07592773 C22.15151571 67.17181688 18.91423661 67.27099786 15.67700195 67.37231445 C14.28348651 67.41527354 12.8899315 67.45697055 11.49633789 67.49731445 C9.47790532 67.55597719 7.4596598 67.61908661 5.44140625 67.68359375 C4.15306885 67.72427979 2.86473145 67.76496582 1.53735352 67.80688477 C-1.44003868 67.96942995 -4.25247038 68.3151627 -7.1875 68.8046875 C-11 69 -11 69 -13.56640625 67.26171875 C-14.22511719 66.41222656 -14.88382813 65.56273437 -15.5625 64.6875 C-16.30113281 63.77355469 -17.03976563 62.85960937 -17.80078125 61.91796875 C-18.88939453 60.47357422 -18.88939453 60.47357422 -20 59 C-21.41079939 57.16214782 -22.82718744 55.32856774 -24.25 53.5 C-25.15492187 52.27796875 -25.15492187 52.27796875 -26.078125 51.03125 C-28.27900373 48.705118 -29.91904324 47.82420499 -33 47 C-34.485 47.495 -34.485 47.495 -36 48 C-35.76289307 48.61520508 -35.52578613 49.23041016 -35.28149414 49.86425781 C-34.20608439 52.65858397 -33.13425719 55.45427099 -32.0625 58.25 C-31.68931641 59.21808594 -31.31613281 60.18617187 -30.93164062 61.18359375 C-30.57392578 62.11816406 -30.21621094 63.05273438 -29.84765625 64.015625 C-29.51773682 64.87446289 -29.18781738 65.73330078 -28.84790039 66.61816406 C-28 69 -28 69 -27 73 C-34.92 73.495 -34.92 73.495 -43 74 C-43 74.33 -43 74.66 -43 75 C-37.72 75 -32.44 75 -27 75 C-32.11202272 90.62006942 -32.11202272 90.62006942 -35.30078125 98.14453125 C-36.11754475 99.98144638 -36.11754475 99.98144638 -36 102 C-28.31785036 100.32982564 -24.66958665 97.23148664 -20.0625 91 C-19.21848633 89.91332031 -19.21848633 89.91332031 -18.35742188 88.8046875 C-16.13426236 85.92547016 -14.01842566 83.02763849 -12 80 C-8.96240234 79.73535156 -8.96240234 79.73535156 -5.0859375 79.890625 C-4.39746735 79.91469421 -3.70899719 79.93876343 -2.99966431 79.96356201 C-0.79062725 80.04477822 1.4168566 80.14755292 3.625 80.25 C5.08979498 80.30470726 6.55463939 80.35810758 8.01953125 80.41015625 C14.7333039 80.66878942 21.34116745 81.10352983 28 82 C27.4140625 88.15234375 27.4140625 88.15234375 27 90 C26.01 90.495 26.01 90.495 25 91 C24.38440128 92.98507977 24.38440128 92.98507977 24 95.3125 C23.40445609 98.52950061 22.72278137 101.19449839 21 104 C20.01 104.66 19.02 105.32 18 106 C18.66 106 19.32 106 20 106 C18.8141763 109.37503669 17.72426311 111.64722731 15 114 C15.66 114 16.32 114 17 114 C15.75023244 117.65316671 15.32901247 118.78065836 12 121 C12.66 121 13.32 121 14 121 C13.69707031 121.72179443 13.39414062 122.44358887 13.08203125 123.18725586 C11.71952409 126.43657342 10.35972677 129.68701803 9 132.9375 C8.52304687 134.07380859 8.04609375 135.21011719 7.5546875 136.38085938 C7.10351562 137.46044922 6.65234375 138.54003906 6.1875 139.65234375 C5.76855469 140.65257568 5.34960938 141.65280762 4.91796875 142.68334961 C3.93860301 144.73963009 3.93860301 144.73963009 4 146 C6.78938212 146.41890218 6.78938212 146.41890218 10 146 C13.90235076 142.55111389 17.00795496 138.57926168 20.125 134.4375 C20.55425781 133.87353516 20.98351562 133.30957031 21.42578125 132.72851562 C22.62153506 131.15563945 23.81097896 129.57797199 25 128 C25.59554687 127.24847656 26.19109375 126.49695313 26.8046875 125.72265625 C28.19002718 124.07559388 28.19002718 124.07559388 28 122 C32.29 122 36.58 122 41 122 C41 120.02 41 118.04 41 116 C38.69 116 36.38 116 34 116 C36.63391106 111.26546357 39.26726731 106.95136418 43 103 C46.89432763 101.89660717 50.07216604 102.14101575 54 103 C55.01111093 99.95086772 55.01111093 99.95086772 54 97 C50.97065509 96.34227572 50.97065509 96.34227572 48 96 C49.73804969 93.67760602 51.48926135 91.36758915 53.25 89.0625 C53.74113281 88.40314453 54.23226562 87.74378906 54.73828125 87.06445312 C55.46337891 86.12182617 55.46337891 86.12182617 56.203125 85.16015625 C56.64301758 84.57886963 57.08291016 83.99758301 57.53613281 83.39868164 C60.21573466 80.83840163 63.45448596 80.87984476 67.01171875 80.75390625 C67.76565918 80.72240479 68.51959961 80.69090332 69.29638672 80.65844727 C70.0854541 80.62678467 70.87452148 80.59512207 71.6875 80.5625 C79.5640304 80.18431961 86.88263022 79.7468092 94 76 C94.04289755 74.06890419 94.04289755 74.06890419 93 72 C85.32880314 68.01687855 78.02574844 67.76303221 69.59375 67.48242188 C59.95760044 67.05682527 59.95760044 67.05682527 56.68505859 63.6184082 C55.28454643 61.91261755 53.97837787 60.16501731 52.6875 58.375 C52.23310547 57.76398437 51.77871094 57.15296875 51.31054688 56.5234375 C50.19697053 55.02303989 49.09709058 53.51249381 48 52 C49.98 51.67 51.96 51.34 54 51 C54 49.02 54 47.04 54 45 C53.31035156 45.13921875 52.62070313 45.2784375 51.91015625 45.421875 C48.59308254 45.80408925 46.2482688 45.84954722 43 45 C39.30441687 41.38888734 36.65797433 37.41026852 34 33 C36.31 32.34 38.62 31.68 41 31 C41 29.35 41 27.7 41 26 C39.94425781 26.31324219 39.94425781 26.31324219 38.8671875 26.6328125 C34.98121591 27.27201931 32.78322478 27.24046913 29 26 C23.34694718 20.92459922 19.26317768 14.23152367 15 8 C12.09095538 3.68753553 12.09095538 3.68753553 7.25 2.1875 C6.1775 2.125625 5.105 2.06375 4 2 Z " fill="#0C0A01" transform="translate(48,0)"/>
<path d="M0 0 C0.99 0.33 1.98 0.66 3 1 C3.66 0.67 4.32 0.34 5 0 C5.66 0.33 6.32 0.66 7 1 C9.37123246 1.23029956 11.74741943 1.41119942 14.125 1.5625 C15.40632813 1.64628906 16.68765625 1.73007813 18.0078125 1.81640625 C19.48894531 1.90728516 19.48894531 1.90728516 21 2 C21 2.66 21 3.32 21 4 C21.66 4.33 22.32 4.66 23 5 C23 5.33 23 5.66 23 6 C33.15436818 6.02332526 43.30872984 6.04101681 53.46311951 6.05181217 C58.17984982 6.05699732 62.8965616 6.06401409 67.61328125 6.07543945 C72.1779905 6.0864255 76.7426821 6.09230959 81.30740356 6.09487724 C83.03582029 6.09670352 84.76423621 6.10026859 86.49264526 6.10573006 C97.37444285 6.13869971 108.14657543 5.82581677 119 5 C110.73387669 13.26612331 88.00945199 10.05525167 76.95117188 10.06591797 C70.30068704 10.06432083 63.65037001 10.03846539 57 10 C56.67 10.99 56.34 11.98 56 13 C55.505 12.01 55.505 12.01 55 11 C52.31824185 10.54114404 49.7061138 10.25659333 47 10 C45.29384521 9.78899658 45.29384521 9.78899658 43.55322266 9.57373047 C27.54026658 7.1020044 27.54026658 7.1020044 12.29199219 10.46289062 C7.62907037 14.52907571 4.76946168 19.542127 2 25 C-0.34134495 28.73301172 -0.34134495 28.73301172 -3.04296875 29.828125 C-6.02148438 30.4140625 -6.02148438 30.4140625 -9 31 C-7.09073397 24.1235378 -4.72235952 17.51381333 -2.0859375 10.8828125 C-0.88228321 7.85502563 -0.88228321 7.85502563 0 4 C-5.28 4 -10.56 4 -16 4 C-16 3.67 -16 3.34 -16 3 C-8.08 2.505 -8.08 2.505 0 2 C0 1.34 0 0.68 0 0 Z " fill="#ECC81E" transform="translate(21,71)"/>
<path d="M0 0 C0.52513184 0.32669678 1.05026367 0.65339355 1.59130859 0.98999023 C4.70959046 2.29754467 7.16022188 2.2090673 10.5390625 2.16015625 C11.83360352 2.14831299 13.12814453 2.13646973 14.46191406 2.12426758 C15.14225708 2.11392487 15.8226001 2.10358215 16.52355957 2.09292603 C20.04420569 2.04195181 23.56498155 2.02980345 27.0859375 2.015625 C27.77671387 2.01230667 28.46749023 2.00898834 29.17919922 2.00556946 C41.07219049 1.9616829 52.64741377 2.02409425 64 6 C64 6.33 64 6.66 64 7 C63.41612015 6.98525131 62.8322403 6.97050262 62.23066711 6.95530701 C26.44465447 6.06465459 -9.21444846 6.03110092 -45 7 C-41.50667091 4.67111394 -39.13072349 4.49853559 -35 4 C-34.24565674 3.83250244 -33.49131348 3.66500488 -32.71411133 3.49243164 C-29.43953581 2.89831283 -26.27595322 2.78268797 -22.94921875 2.68359375 C-21.96100883 2.6524221 -21.96100883 2.6524221 -20.95283508 2.62062073 C-18.86448815 2.55564511 -16.77602388 2.49648425 -14.6875 2.4375 C-13.2649622 2.39426521 -11.84243594 2.3506494 -10.41992188 2.30664062 C-6.94673703 2.20001784 -3.47342274 2.09860652 0 2 C0 1.34 0 0.68 0 0 Z " fill="#ECC71D" transform="translate(76,65)"/>
<path d="M0 0 C2.0234375 0.20703125 2.0234375 0.20703125 4.375 0.8125 C5.14585938 1.00457031 5.91671875 1.19664063 6.7109375 1.39453125 C7.46632813 1.59433594 8.22171875 1.79414062 9 2 C10.33306527 2.33440375 11.66630921 2.66809978 13 3 C11.49227028 7.77299053 8.81047279 10.88259341 5.5625 14.5625 C4.5836692 15.68796248 3.60577978 16.81424449 2.62890625 17.94140625 C2.16734131 18.46782715 1.70577637 18.99424805 1.23022461 19.53662109 C-0.12217939 21.09576824 -0.12217939 21.09576824 -1.5859375 23.32421875 C-4.0854091 26.28629974 -7.30772093 26.27365002 -11 27 C-9.35041996 20.85024987 -7.27847456 14.91505213 -4.9375 9 C-4.6801709 8.3412085 -4.4228418 7.68241699 -4.15771484 7.00366211 C-3.02894163 4.19632214 -2.16207286 2.16207286 0 0 Z " fill="#F8D61F" transform="translate(23,75)"/>
<path d="M0 0 C28.05 0 56.1 0 85 0 C85 0.33 85 0.66 85 1 C68.01917144 2.33744923 51.01934147 2.09843897 34 2 C33.67 2.99 33.34 3.98 33 5 C32.505 4.01 32.505 4.01 32 3 C25.23341234 1.78362531 18.35852286 1.68772123 11.5 1.4375 C10.39140625 1.39431641 9.2828125 1.35113281 8.140625 1.30664062 C5.42718494 1.20137786 2.71366583 1.09924154 0 1 C0 0.67 0 0.34 0 0 Z " fill="#DDBA1B" transform="translate(44,79)"/>
<path d="M0 0 C0.52513184 0.32669678 1.05026367 0.65339355 1.59130859 0.98999023 C4.70959046 2.29754467 7.16022188 2.2090673 10.5390625 2.16015625 C11.83448975 2.14855469 13.12991699 2.13695313 14.46459961 2.125 C15.14505341 2.1146875 15.8255072 2.104375 16.52658081 2.09375 C20.03189913 2.04154823 23.53733053 2.02183216 27.04296875 2.00390625 C27.73147415 1.99996857 28.41997955 1.99603088 29.12934875 1.99197388 C37.11104863 1.96415413 45.04501696 2.38891763 53 3 C53 3.33 53 3.66 53 4 C23.96 4.33 -5.08 4.66 -35 5 C-35 4.67 -35 4.34 -35 4 C-30.95820902 3.05747447 -27.09365556 2.80704506 -22.94921875 2.68359375 C-21.96100883 2.6524221 -21.96100883 2.6524221 -20.95283508 2.62062073 C-18.86448815 2.55564511 -16.77602388 2.49648425 -14.6875 2.4375 C-13.2649622 2.39426521 -11.84243594 2.3506494 -10.41992188 2.30664062 C-6.94673703 2.20001784 -3.47342274 2.09860652 0 2 C0 1.34 0 0.68 0 0 Z " fill="#DCB91B" transform="translate(76,65)"/>
<path d="M0 0 C4.31248547 -0.02929984 8.62494493 -0.04689903 12.9375 -0.0625 C14.14986328 -0.07087891 15.36222656 -0.07925781 16.61132812 -0.08789062 C23.16625712 -0.10565466 29.50401275 0.11004274 36 1 C34.45998626 8.17086397 32.87550644 15.22202052 30 22 C29.34 21.67 28.68 21.34 28 21 C28 19.35 28 17.7 28 16 C28.66 15.67 29.32 15.34 30 15 C30 13.02 30 11.04 30 9 C30.66 9 31.32 9 32 9 C32.33 7.02 32.66 5.04 33 3 C32.10692139 2.98018066 31.21384277 2.96036133 30.29370117 2.93994141 C26.97799292 2.86181302 23.66273838 2.77512029 20.34741211 2.68261719 C18.91292932 2.64435134 17.47835135 2.60949419 16.04370117 2.578125 C13.98061122 2.53242138 11.91817505 2.47443807 9.85546875 2.4140625 C7.99378052 2.36693115 7.99378052 2.36693115 6.09448242 2.31884766 C3 2 3 2 0 0 Z " fill="#1A1603" transform="translate(41,80)"/>
<path d="M0 0 C0.99 0.33 1.98 0.66 3 1 C3.66 0.67 4.32 0.34 5 0 C5.66 0.33 6.32 0.66 7 1 C9.204364 1.22950319 11.41392173 1.41075933 13.625 1.5625 C14.81351563 1.64628906 16.00203125 1.73007813 17.2265625 1.81640625 C18.14179687 1.87699219 19.05703125 1.93757813 20 2 C20 2.99 20 3.98 20 5 C7.99676288 6.2624764 7.99676288 6.2624764 2 5 C1.01 5.495 1.01 5.495 0 6 C0 5.34 0 4.68 0 4 C-5.28 4 -10.56 4 -16 4 C-16 3.67 -16 3.34 -16 3 C-8.08 2.505 -8.08 2.505 0 2 C0 1.34 0 0.68 0 0 Z " fill="#D6B41A" transform="translate(21,71)"/>
<path d="M0 0 C0.33 0.99 0.66 1.98 1 3 C0.34 3.66 -0.32 4.32 -1 5 C-1.144375 5.825 -1.28875 6.65 -1.4375 7.5 C-2 10 -2 10 -5 12 C-4.67 12.99 -4.34 13.98 -4 15 C-4.98546999 16.67529898 -5.98940479 18.33973644 -7 20 C-7.85962329 22.31776934 -8.61406458 24.65251842 -9.3515625 27.01171875 C-10 29 -10 29 -11 31 C-11.66 30.67 -12.32 30.34 -13 30 C-12.7834375 29.38511719 -12.566875 28.77023438 -12.34375 28.13671875 C-12.0653125 27.32847656 -11.786875 26.52023438 -11.5 25.6875 C-11.2215625 24.88699219 -10.943125 24.08648437 -10.65625 23.26171875 C-9.86066893 20.91230578 -9.86066893 20.91230578 -10 18 C-8 15.8125 -8 15.8125 -6 14 C-6.66 14 -7.32 14 -8 14 C-8 12.68 -8 11.36 -8 10 C-6.68 10 -5.36 10 -4 10 C-3.67 8.68 -3.34 7.36 -3 6 C-3.66 6 -4.32 6 -5 6 C-5 5.01 -5 4.02 -5 3 C-2.5 1.3125 -2.5 1.3125 0 0 Z " fill="#090701" transform="translate(69,101)"/>
<path d="M0 0 C1.0625 1.8125 1.0625 1.8125 2 4 C1.67 4.99 1.34 5.98 1 7 C0.01 7.33 -0.98 7.66 -2 8 C-1.44570312 8.68707031 -0.89140625 9.37414063 -0.3203125 10.08203125 C0.76636719 11.43361328 0.76636719 11.43361328 1.875 12.8125 C2.59429687 13.70582031 3.31359375 14.59914063 4.0546875 15.51953125 C6 18 6 18 8 21 C4.63490713 20.43825095 3.26584866 19.57089671 1.203125 16.875 C0.71972656 16.25109375 0.23632812 15.6271875 -0.26171875 14.984375 C-0.75285156 14.32953125 -1.24398437 13.6746875 -1.75 13 C-2.25660156 12.34515625 -2.76320313 11.6903125 -3.28515625 11.015625 C-7 6.16930593 -7 6.16930593 -7 5 C-4.69 5 -2.38 5 0 5 C0 3.35 0 1.7 0 0 Z " fill="#0A0901" transform="translate(102,46)"/>
<path d="M0 0 C3.3 0 6.6 0 10 0 C10 1.65 10 3.3 10 5 C9 6 9 6 7.15234375 6.09765625 C5.1015625 6.06510417 3.05078125 6.03255208 1 6 C0.67 5.01 0.34 4.02 0 3 C1.98 3 3.96 3 6 3 C6 2.34 6 1.68 6 1 C4.02 1 2.04 1 0 1 C0 0.67 0 0.34 0 0 Z " fill="#F1CC1E" transform="translate(79,26)"/>
<path d="M0 0 C1.98684643 0.20710541 3.97177084 0.45702811 5.9375 0.8125 C5.9375 1.1425 5.9375 1.4725 5.9375 1.8125 C4.77734375 1.83763672 4.77734375 1.83763672 3.59375 1.86328125 C-1.54274861 2.28920378 -4.89996593 2.64820451 -8.640625 6.39453125 C-10.5976691 9.13650491 -12.39791864 11.88479514 -14.0625 14.8125 C-14.7225 14.4825 -15.3825 14.1525 -16.0625 13.8125 C-8.6544303 -0.12309365 -8.6544303 -0.12309365 0 0 Z " fill="#1A1503" transform="translate(83.0625,121.1875)"/>
<path d="M0 0 C2.31 0 4.62 0 7 0 C7.38218767 1.65614657 7.71395102 3.32457024 8 5 C6.41105928 6.58894072 4.75198576 6.16998411 2.5625 6.1875 C1.35787109 6.20876953 1.35787109 6.20876953 0.12890625 6.23046875 C-2 6 -2 6 -4 4 C-1.69 4 0.62 4 3 4 C3 3.01 3 2.02 3 1 C2.01 0.67 1.02 0.34 0 0 Z " fill="#E4C21E" transform="translate(95,97)"/>
<path d="M0 0 C0.33 0.66 0.66 1.32 1 2 C-0.109375 5.00390625 -0.109375 5.00390625 -1.75 8.5625 C-2.28109375 9.73941406 -2.8121875 10.91632813 -3.359375 12.12890625 C-5 15 -5 15 -8 16 C-3.54317549 2.36211699 -3.54317549 2.36211699 0 0 Z " fill="#DCBA1C" transform="translate(64,121)"/>
<path d="M0 0 C0.66 0 1.32 0 2 0 C-2.23382046 9.17327766 -2.23382046 9.17327766 -6.9375 11.375 C-9.7392937 11.94679463 -12.15330886 12.16745242 -15 12 C-12.70186294 10.85093147 -10.44875301 9.77715547 -8.0625 8.8125 C-4.59931082 6.76285742 -3.16322132 4.78278632 -1.078125 1.42578125 C-0.72234375 0.95527344 -0.3665625 0.48476562 0 0 Z " fill="#070600" transform="translate(66,136)"/>
<path d="M0 0 C1.32 0.33 2.64 0.66 4 1 C3.34 3.64 2.68 6.28 2 9 C0.68 9.33 -0.64 9.66 -2 10 C-2 9.34 -2 8.68 -2 8 C-1.34 8 -0.68 8 0 8 C0 5.36 0 2.72 0 0 Z " fill="#100D01" transform="translate(73,81)"/>
<path d="M0 0 C0 0.66 0 1.32 0 2 C-2.375 3.0625 -2.375 3.0625 -5 4 C-5.66 3.67 -6.32 3.34 -7 3 C-7 2.01 -7 1.02 -7 0 C-3.86650268 -1.04449911 -3.01031744 -0.93423645 0 0 Z " fill="#FEE932" transform="translate(97,47)"/>
<path d="M0 0 C2.00948183 0.01778303 4.01668765 0.16786374 6.01953125 0.33203125 C3.30558463 2.141329 2.03165668 2.60181903 -0.98046875 3.33203125 C-2.32844305 3.96857467 -3.66643599 4.62808513 -4.98046875 5.33203125 C-3.05235036 0.51173527 -3.05235036 0.51173527 0 0 Z " fill="#131002" transform="translate(37.98046875,78.66796875)"/>
<path d="M0 0 C0 1.98 0 3.96 0 6 C-2 3 -2 3 -2 1 C-4.31 1 -6.62 1 -9 1 C-9 0.67 -9 0.34 -9 0 C-5.62182575 -0.84454356 -3.32534757 -1.10844919 0 0 Z " fill="#1B1602" transform="translate(104,96)"/>
<path d="M0 0 C1.0625 1.8125 1.0625 1.8125 2 4 C1.67 4.99 1.34 5.98 1 7 C-1.64 6.67 -4.28 6.34 -7 6 C-7 5.67 -7 5.34 -7 5 C-4.69 5 -2.38 5 0 5 C0 3.35 0 1.7 0 0 Z " fill="#403607" transform="translate(102,46)"/>
<path d="M0 0 C2.89932357 2.39509338 3.50168276 4.31245243 4 8 C2.68 8.33 1.36 8.66 0 9 C0.185625 8.443125 0.37125 7.88625 0.5625 7.3125 C1.07551165 4.600867 0.6640724 2.65628961 0 0 Z " fill="#1C1803" transform="translate(61,27)"/>
</svg>
